<mxfile host="app.diagrams.net" modified="2023-11-19T19:12:11.153Z" agent="Mozilla/5.0 (Windows NT 10.0; Win64; x64) AppleWebKit/537.36 (KHTML, like Gecko) Chrome/119.0.0.0 Safari/537.36 Edg/119.0.0.0" etag="8PeDcpvIDWUIYfFtuY1e" version="22.1.3" type="google">
  <diagram name="Page-1" id="pkalxH3GCsMZknqXKzS0">
    <mxGraphModel dx="1155" dy="661" grid="1" gridSize="10" guides="1" tooltips="1" connect="1" arrows="1" fold="1" page="1" pageScale="1" pageWidth="850" pageHeight="1100" math="0" shadow="0">
      <root>
        <mxCell id="0" />
        <mxCell id="1" parent="0" />
        <mxCell id="M5SwcZthVQdyawCW9DYz-113" value="" style="rounded=0;whiteSpace=wrap;html=1;" parent="1" vertex="1">
          <mxGeometry x="135" y="360" width="580" height="200" as="geometry" />
        </mxCell>
        <mxCell id="M5SwcZthVQdyawCW9DYz-112" value="" style="rounded=0;whiteSpace=wrap;html=1;" parent="1" vertex="1">
          <mxGeometry x="200" y="80" width="430" height="170" as="geometry" />
        </mxCell>
        <mxCell id="M5SwcZthVQdyawCW9DYz-37" value="Client Registrat" style="shape=umlActor;verticalLabelPosition=bottom;verticalAlign=top;html=1;outlineConnect=0;" parent="1" vertex="1">
          <mxGeometry x="125" y="90" width="30" height="60" as="geometry" />
        </mxCell>
        <mxCell id="M5SwcZthVQdyawCW9DYz-38" value="MyPersonalShopper (System)" style="text;html=1;align=center;verticalAlign=middle;resizable=0;points=[];autosize=1;strokeColor=none;fillColor=none;" parent="1" vertex="1">
          <mxGeometry x="327.5" y="50" width="180" height="30" as="geometry" />
        </mxCell>
        <mxCell id="M5SwcZthVQdyawCW9DYz-39" value="Fer Demanat" style="ellipse;whiteSpace=wrap;html=1;" parent="1" vertex="1">
          <mxGeometry x="230" y="100" width="80" height="40" as="geometry" />
        </mxCell>
        <mxCell id="M5SwcZthVQdyawCW9DYz-46" value="Fer Devolució" style="ellipse;whiteSpace=wrap;html=1;" parent="1" vertex="1">
          <mxGeometry x="250" y="170" width="80" height="40" as="geometry" />
        </mxCell>
        <mxCell id="M5SwcZthVQdyawCW9DYz-80" value="Client Registrat" style="shape=umlActor;verticalLabelPosition=bottom;verticalAlign=top;html=1;outlineConnect=0;" parent="1" vertex="1">
          <mxGeometry x="50" y="370" width="30" height="60" as="geometry" />
        </mxCell>
        <mxCell id="M5SwcZthVQdyawCW9DYz-81" value="MyPersonalShopper (System)" style="text;html=1;align=center;verticalAlign=middle;resizable=0;points=[];autosize=1;strokeColor=none;fillColor=none;" parent="1" vertex="1">
          <mxGeometry x="330" y="330" width="180" height="30" as="geometry" />
        </mxCell>
        <mxCell id="M5SwcZthVQdyawCW9DYz-82" value="Fer Demanat" style="ellipse;whiteSpace=wrap;html=1;" parent="1" vertex="1">
          <mxGeometry x="195" y="380" width="80" height="40" as="geometry" />
        </mxCell>
        <mxCell id="M5SwcZthVQdyawCW9DYz-83" value="Personal Shopper" style="shape=umlActor;verticalLabelPosition=bottom;verticalAlign=top;html=1;outlineConnect=0;" parent="1" vertex="1">
          <mxGeometry x="770" y="370" width="30" height="60" as="geometry" />
        </mxCell>
        <mxCell id="M5SwcZthVQdyawCW9DYz-90" value="Seleccionar Roba" style="ellipse;whiteSpace=wrap;html=1;" parent="1" vertex="1">
          <mxGeometry x="555" y="380" width="80" height="40" as="geometry" />
        </mxCell>
        <mxCell id="M5SwcZthVQdyawCW9DYz-94" value="Sistema de &lt;br&gt;pagament" style="shape=umlActor;verticalLabelPosition=bottom;verticalAlign=top;html=1;outlineConnect=0;" parent="1" vertex="1">
          <mxGeometry x="770" y="480" width="30" height="60" as="geometry" />
        </mxCell>
        <mxCell id="M5SwcZthVQdyawCW9DYz-95" value="Seleccionar mètode pagament" style="ellipse;whiteSpace=wrap;html=1;" parent="1" vertex="1">
          <mxGeometry x="275" y="500" width="132.5" height="40" as="geometry" />
        </mxCell>
        <mxCell id="M5SwcZthVQdyawCW9DYz-100" value="Processar Pagament" style="ellipse;whiteSpace=wrap;html=1;" parent="1" vertex="1">
          <mxGeometry x="527.5" y="490" width="80" height="40" as="geometry" />
        </mxCell>
        <mxCell id="M5SwcZthVQdyawCW9DYz-101" value="Processar Comanda" style="ellipse;whiteSpace=wrap;html=1;" parent="1" vertex="1">
          <mxGeometry x="377.5" y="430" width="80" height="40" as="geometry" />
        </mxCell>
        <mxCell id="iLLjYZJjG0MDl066oAmf-1" value="&lt;b&gt;CU - Devolució d&#39;un producte&lt;/b&gt;" style="text;html=1;strokeColor=default;fillColor=none;align=center;verticalAlign=middle;whiteSpace=wrap;rounded=0;" vertex="1" parent="1">
          <mxGeometry x="325" y="10" width="180" height="40" as="geometry" />
        </mxCell>
        <mxCell id="iLLjYZJjG0MDl066oAmf-10" value="&amp;lt;&amp;lt;extend&amp;gt;&amp;gt;" style="endArrow=open;endSize=12;dashed=1;html=1;rounded=0;entryX=0.5;entryY=1;entryDx=0;entryDy=0;exitX=0.5;exitY=0;exitDx=0;exitDy=0;" edge="1" parent="1" source="M5SwcZthVQdyawCW9DYz-46" target="M5SwcZthVQdyawCW9DYz-39">
          <mxGeometry width="160" relative="1" as="geometry">
            <mxPoint x="290" y="300" as="sourcePoint" />
            <mxPoint x="450" y="300" as="targetPoint" />
          </mxGeometry>
        </mxCell>
        <mxCell id="iLLjYZJjG0MDl066oAmf-12" value="Donar motiu de devolució" style="ellipse;whiteSpace=wrap;html=1;" vertex="1" parent="1">
          <mxGeometry x="425" y="180" width="80" height="50" as="geometry" />
        </mxCell>
        <mxCell id="iLLjYZJjG0MDl066oAmf-13" value="&amp;lt;&amp;lt;include&amp;gt;&amp;gt;" style="endArrow=open;endSize=12;dashed=1;html=1;rounded=0;entryX=0.059;entryY=0.294;entryDx=0;entryDy=0;exitX=1;exitY=0.5;exitDx=0;exitDy=0;entryPerimeter=0;" edge="1" parent="1" source="M5SwcZthVQdyawCW9DYz-46" target="iLLjYZJjG0MDl066oAmf-12">
          <mxGeometry width="160" relative="1" as="geometry">
            <mxPoint x="330" y="170" as="sourcePoint" />
            <mxPoint x="380" y="209.9999999999999" as="targetPoint" />
          </mxGeometry>
        </mxCell>
        <mxCell id="iLLjYZJjG0MDl066oAmf-15" value="Empresa missatgeria&amp;nbsp;" style="shape=umlActor;verticalLabelPosition=bottom;verticalAlign=top;html=1;outlineConnect=0;" vertex="1" parent="1">
          <mxGeometry x="680" y="95" width="30" height="60" as="geometry" />
        </mxCell>
        <mxCell id="iLLjYZJjG0MDl066oAmf-16" value="Gestionar devolució" style="ellipse;whiteSpace=wrap;html=1;" vertex="1" parent="1">
          <mxGeometry x="510" y="100" width="80" height="50" as="geometry" />
        </mxCell>
        <mxCell id="iLLjYZJjG0MDl066oAmf-19" value="&amp;lt;&amp;lt;include&amp;gt;&amp;gt;" style="endArrow=open;endSize=12;dashed=1;html=1;rounded=0;entryX=1;entryY=0;entryDx=0;entryDy=0;exitX=0;exitY=0.5;exitDx=0;exitDy=0;" edge="1" parent="1" source="iLLjYZJjG0MDl066oAmf-16" target="M5SwcZthVQdyawCW9DYz-46">
          <mxGeometry width="160" relative="1" as="geometry">
            <mxPoint x="320" y="200" as="sourcePoint" />
            <mxPoint x="405" y="195" as="targetPoint" />
          </mxGeometry>
        </mxCell>
        <mxCell id="iLLjYZJjG0MDl066oAmf-20" value="&lt;b&gt;CU - Comanda Client&lt;/b&gt;" style="text;html=1;strokeColor=default;fillColor=none;align=center;verticalAlign=middle;whiteSpace=wrap;rounded=0;" vertex="1" parent="1">
          <mxGeometry x="327.5" y="290" width="180" height="40" as="geometry" />
        </mxCell>
        <mxCell id="iLLjYZJjG0MDl066oAmf-23" value="&amp;lt;&amp;lt;include&amp;gt;&amp;gt;" style="endArrow=open;endSize=12;dashed=1;html=1;rounded=0;entryX=0;entryY=0.5;entryDx=0;entryDy=0;exitX=1;exitY=0.5;exitDx=0;exitDy=0;" edge="1" parent="1" source="M5SwcZthVQdyawCW9DYz-82" target="M5SwcZthVQdyawCW9DYz-90">
          <mxGeometry width="160" relative="1" as="geometry">
            <mxPoint x="347.5" y="200" as="sourcePoint" />
            <mxPoint x="447.5" y="205" as="targetPoint" />
          </mxGeometry>
        </mxCell>
        <mxCell id="iLLjYZJjG0MDl066oAmf-24" value="&amp;lt;&amp;lt;include&amp;gt;&amp;gt;" style="endArrow=open;endSize=12;dashed=1;html=1;rounded=0;entryX=1;entryY=0.5;entryDx=0;entryDy=0;exitX=0;exitY=0.5;exitDx=0;exitDy=0;" edge="1" parent="1" source="M5SwcZthVQdyawCW9DYz-100" target="M5SwcZthVQdyawCW9DYz-95">
          <mxGeometry width="160" relative="1" as="geometry">
            <mxPoint x="285.5" y="410" as="sourcePoint" />
            <mxPoint x="565.5" y="410" as="targetPoint" />
          </mxGeometry>
        </mxCell>
        <mxCell id="iLLjYZJjG0MDl066oAmf-25" value="" style="rounded=0;whiteSpace=wrap;html=1;" vertex="1" parent="1">
          <mxGeometry x="241.5" y="660" width="440" height="90" as="geometry" />
        </mxCell>
        <mxCell id="iLLjYZJjG0MDl066oAmf-26" value="Client no registrat&amp;nbsp;&lt;br&gt;" style="shape=umlActor;verticalLabelPosition=bottom;verticalAlign=top;html=1;outlineConnect=0;" vertex="1" parent="1">
          <mxGeometry x="169" y="670" width="30" height="60" as="geometry" />
        </mxCell>
        <mxCell id="iLLjYZJjG0MDl066oAmf-27" value="MyPersonalShopper (System)" style="text;html=1;align=center;verticalAlign=middle;resizable=0;points=[];autosize=1;strokeColor=none;fillColor=none;" vertex="1" parent="1">
          <mxGeometry x="340" y="630" width="180" height="30" as="geometry" />
        </mxCell>
        <mxCell id="iLLjYZJjG0MDl066oAmf-28" value="Registrar-se aplicació" style="ellipse;whiteSpace=wrap;html=1;" vertex="1" parent="1">
          <mxGeometry x="261.5" y="680" width="80" height="40" as="geometry" />
        </mxCell>
        <mxCell id="iLLjYZJjG0MDl066oAmf-31" value="&lt;b&gt;CU - Emplenar perfil&lt;/b&gt;" style="text;html=1;strokeColor=default;fillColor=none;align=center;verticalAlign=middle;whiteSpace=wrap;rounded=0;" vertex="1" parent="1">
          <mxGeometry x="330" y="590" width="190" height="40" as="geometry" />
        </mxCell>
        <mxCell id="iLLjYZJjG0MDl066oAmf-39" value="&amp;lt;&amp;lt;include&amp;gt;&amp;gt;" style="endArrow=open;endSize=12;dashed=1;html=1;rounded=0;entryX=1.058;entryY=0.566;entryDx=0;entryDy=0;entryPerimeter=0;exitX=0;exitY=0.5;exitDx=0;exitDy=0;" edge="1" parent="1" source="iLLjYZJjG0MDl066oAmf-40" target="iLLjYZJjG0MDl066oAmf-28">
          <mxGeometry width="160" relative="1" as="geometry">
            <mxPoint x="554" y="705" as="sourcePoint" />
            <mxPoint x="362.2842712474619" y="755.8578643762692" as="targetPoint" />
          </mxGeometry>
        </mxCell>
        <mxCell id="iLLjYZJjG0MDl066oAmf-40" value="Omplir perfil" style="ellipse;whiteSpace=wrap;html=1;" vertex="1" parent="1">
          <mxGeometry x="416.5" y="680" width="80" height="40" as="geometry" />
        </mxCell>
        <mxCell id="iLLjYZJjG0MDl066oAmf-41" value="Assignació Personal Shopper" style="ellipse;whiteSpace=wrap;html=1;" vertex="1" parent="1">
          <mxGeometry x="521.5" y="680" width="140" height="40" as="geometry" />
        </mxCell>
        <mxCell id="iLLjYZJjG0MDl066oAmf-45" value="" style="endArrow=none;html=1;rounded=0;entryX=0;entryY=0.5;entryDx=0;entryDy=0;" edge="1" parent="1" target="M5SwcZthVQdyawCW9DYz-39">
          <mxGeometry relative="1" as="geometry">
            <mxPoint x="160" y="120" as="sourcePoint" />
            <mxPoint x="480" y="160" as="targetPoint" />
          </mxGeometry>
        </mxCell>
        <mxCell id="iLLjYZJjG0MDl066oAmf-46" value="" style="endArrow=none;html=1;rounded=0;entryX=0;entryY=0.5;entryDx=0;entryDy=0;" edge="1" parent="1" target="M5SwcZthVQdyawCW9DYz-46">
          <mxGeometry relative="1" as="geometry">
            <mxPoint x="160" y="120" as="sourcePoint" />
            <mxPoint x="240" y="130" as="targetPoint" />
          </mxGeometry>
        </mxCell>
        <mxCell id="iLLjYZJjG0MDl066oAmf-47" value="" style="endArrow=none;html=1;rounded=0;" edge="1" parent="1" target="iLLjYZJjG0MDl066oAmf-15">
          <mxGeometry relative="1" as="geometry">
            <mxPoint x="590" y="125" as="sourcePoint" />
            <mxPoint x="260" y="200" as="targetPoint" />
          </mxGeometry>
        </mxCell>
        <mxCell id="iLLjYZJjG0MDl066oAmf-49" value="" style="endArrow=none;html=1;rounded=0;exitX=1;exitY=0.5;exitDx=0;exitDy=0;" edge="1" parent="1" source="M5SwcZthVQdyawCW9DYz-90">
          <mxGeometry relative="1" as="geometry">
            <mxPoint x="607.5" y="135" as="sourcePoint" />
            <mxPoint x="767.5" y="400" as="targetPoint" />
          </mxGeometry>
        </mxCell>
        <mxCell id="iLLjYZJjG0MDl066oAmf-50" value="" style="endArrow=none;html=1;rounded=0;exitX=1;exitY=0.5;exitDx=0;exitDy=0;" edge="1" parent="1" source="M5SwcZthVQdyawCW9DYz-100" target="M5SwcZthVQdyawCW9DYz-94">
          <mxGeometry relative="1" as="geometry">
            <mxPoint x="645.5" y="410" as="sourcePoint" />
            <mxPoint x="777.5" y="410" as="targetPoint" />
          </mxGeometry>
        </mxCell>
        <mxCell id="iLLjYZJjG0MDl066oAmf-51" value="&amp;lt;&amp;lt;include&amp;gt;&amp;gt;" style="endArrow=open;endSize=12;dashed=1;html=1;rounded=0;entryX=1.007;entryY=0.678;entryDx=0;entryDy=0;entryPerimeter=0;exitX=0;exitY=0;exitDx=0;exitDy=0;" edge="1" parent="1" source="M5SwcZthVQdyawCW9DYz-100" target="M5SwcZthVQdyawCW9DYz-101">
          <mxGeometry width="160" relative="1" as="geometry">
            <mxPoint x="285.5" y="410" as="sourcePoint" />
            <mxPoint x="565.5" y="410" as="targetPoint" />
            <Array as="points">
              <mxPoint x="507.5" y="480" />
            </Array>
          </mxGeometry>
        </mxCell>
        <mxCell id="iLLjYZJjG0MDl066oAmf-52" value="" style="endArrow=none;html=1;rounded=0;exitX=1;exitY=1;exitDx=0;exitDy=0;entryX=0.093;entryY=0.213;entryDx=0;entryDy=0;entryPerimeter=0;" edge="1" parent="1" source="M5SwcZthVQdyawCW9DYz-82" target="M5SwcZthVQdyawCW9DYz-101">
          <mxGeometry relative="1" as="geometry">
            <mxPoint x="645.5" y="410" as="sourcePoint" />
            <mxPoint x="777.5" y="410" as="targetPoint" />
          </mxGeometry>
        </mxCell>
        <mxCell id="iLLjYZJjG0MDl066oAmf-53" value="" style="endArrow=none;html=1;rounded=0;entryX=0;entryY=0.5;entryDx=0;entryDy=0;" edge="1" parent="1" target="M5SwcZthVQdyawCW9DYz-95">
          <mxGeometry relative="1" as="geometry">
            <mxPoint x="97.5" y="400" as="sourcePoint" />
            <mxPoint x="787.5" y="420" as="targetPoint" />
          </mxGeometry>
        </mxCell>
        <mxCell id="iLLjYZJjG0MDl066oAmf-54" value="" style="endArrow=none;html=1;rounded=0;entryX=0;entryY=0.5;entryDx=0;entryDy=0;" edge="1" parent="1" target="M5SwcZthVQdyawCW9DYz-82">
          <mxGeometry relative="1" as="geometry">
            <mxPoint x="97.5" y="400" as="sourcePoint" />
            <mxPoint x="285.5" y="530" as="targetPoint" />
          </mxGeometry>
        </mxCell>
        <mxCell id="iLLjYZJjG0MDl066oAmf-55" value="" style="endArrow=none;html=1;rounded=0;entryX=0;entryY=0.5;entryDx=0;entryDy=0;" edge="1" parent="1" source="iLLjYZJjG0MDl066oAmf-26" target="iLLjYZJjG0MDl066oAmf-28">
          <mxGeometry relative="1" as="geometry">
            <mxPoint x="141.5" y="410" as="sourcePoint" />
            <mxPoint x="319.5" y="530" as="targetPoint" />
          </mxGeometry>
        </mxCell>
        <mxCell id="iLLjYZJjG0MDl066oAmf-56" value="" style="endArrow=none;html=1;rounded=0;entryX=0;entryY=0.5;entryDx=0;entryDy=0;exitX=1;exitY=0.5;exitDx=0;exitDy=0;" edge="1" parent="1" source="iLLjYZJjG0MDl066oAmf-40" target="iLLjYZJjG0MDl066oAmf-41">
          <mxGeometry relative="1" as="geometry">
            <mxPoint x="481.5" y="725" as="sourcePoint" />
            <mxPoint x="271.5" y="710" as="targetPoint" />
          </mxGeometry>
        </mxCell>
      </root>
    </mxGraphModel>
  </diagram>
</mxfile>
